<svg width="22" height="25" viewBox="0 0 22 25" fill="none" xmlns="http://www.w3.org/2000/svg">
<path d="M18.5881 13.3344V11.6675C18.5881 7.98514 15.6495 5 12.0247 5C8.39981 5 5.46128 7.98514 5.46128 11.6675V13.3344C5.42055 14.362 4.96073 15.3262 4.19208 15.9955C3.50882 16.587 3.08088 17.4268 3 18.335C3 20.4186 6.37359 21.6688 12.0247 21.6688C17.6758 21.6688 21.0494 20.4186 21.0494 18.335C20.9685 17.4268 20.5405 16.587 19.8573 15.9955C19.0886 15.3262 18.6288 14.362 18.5881 13.3344V13.3344Z" fill="white"/>
<path d="M9.68359 23.2524C10.0045 24.2924 10.9531 25.0002 12.0259 25.0002C13.0987 25.0002 14.0473 24.2924 14.3682 23.2524C13.6348 23.3074 12.8554 23.3358 12.0259 23.3358C11.1965 23.3358 10.4171 23.3091 9.68359 23.2524Z" fill="white"/>
<circle cx="6" cy="6" r="6" fill="#172B4D"/>
<circle cx="6" cy="6" r="4" fill="#E0B677"/>
</svg>
