<svg width="19" height="20" viewBox="0 0 19 20" fill="none" xmlns="http://www.w3.org/2000/svg">
<path d="M15.5881 8.33438V6.6675C15.5881 2.98514 12.6495 0 9.02468 0C5.39981 0 2.46128 2.98514 2.46128 6.6675V8.33438C2.42055 9.36204 1.96073 10.3262 1.19208 10.9955C0.508825 11.587 0.0808807 12.4268 0 13.335C0 15.4186 3.37359 16.6688 9.02468 16.6688C14.6758 16.6688 18.0494 15.4186 18.0494 13.335C17.9685 12.4268 17.5405 11.587 16.8573 10.9955C16.0886 10.3262 15.6288 9.36204 15.5881 8.33438Z" fill="white"/>
<path d="M6.68359 18.2524C7.00452 19.2924 7.95307 20.0002 9.02591 20.0002C10.0987 20.0002 11.0473 19.2924 11.3682 18.2524C10.6348 18.3074 9.85536 18.3358 9.02591 18.3358C8.19646 18.3358 7.41705 18.3091 6.68359 18.2524Z" fill="white"/>
</svg>
