<?xml version="1.0" encoding="UTF-8"?><svg id="a" xmlns="http://www.w3.org/2000/svg" xmlns:xlink="http://www.w3.org/1999/xlink" viewBox="0 0 486.86 927.94"><defs><style>.aq{fill:url(#t);}.ar{fill:#fff;}.as{fill:url(#r);}.at{fill:url(#l);}.au{fill:url(#af);}.av{fill:url(#ah);}.aw{fill:url(#v);}.ax{fill:url(#a`);}.ay{fill:url(#f);}.b`{fill:url(#p);}.ba{fill:url(#ad);}.bb{fill:url(#ab);}.bc{fill:url(#b);}.bd{fill:url(#aj);}.be{fill:url(#h);}.bf{fill:url(#d);}.bg{fill:url(#x);}.bh{fill:url(#n);}.bi{fill:url(#al);}.bj{fill:url(#j);}.bk{fill:url(#an);}</style><linearGradient id="b" x1="253.52" y1="200.7" x2="149.8" y2="96.98" gradientTransform="translate(486.86) rotate(-180) scale(1 -1)" gradientUnits="userSpaceOnUse"><stop offset="0" stop-color="#fff"/><stop offset="1" stop-color="#e0b677"/></linearGradient><linearGradient id="d" x1="334.15" y1="92.29" x2="211.3" y2="215.15" gradientTransform="matrix(1, 0, 0, 1, 0, 0)" gradientUnits="userSpaceOnUse"><stop offset="0" stop-color="#e0b677"/><stop offset=".15" stop-color="#c6a36e"/><stop offset=".47" stop-color="#857459"/><stop offset=".92" stop-color="#1d2938"/><stop offset="1" stop-color="#0c1d33"/></linearGradient><linearGradient id="f" x1="312.46" y1="252.78" x2="269.42" y2="209.75" gradientTransform="translate(486.86) rotate(-180) scale(1 -1)" gradientUnits="userSpaceOnUse"><stop offset="0" stop-color="#fff"/><stop offset="1" stop-color="#e0b677"/></linearGradient><linearGradient id="h" x1="392.83" y1="80.23" x2="170.02" y2="303.04" gradientTransform="translate(486.86) rotate(-180) scale(1 -1)" gradientUnits="userSpaceOnUse"><stop offset="0" stop-color="#e0b677"/><stop offset=".44" stop-color="#7b6d56"/><stop offset=".83" stop-color="#2b333d"/><stop offset="1" stop-color="#0c1d33"/></linearGradient><linearGradient id="j" x1="360.05" y1="339.52" x2="290.94" y2="270.41" gradientTransform="translate(486.86) rotate(-180) scale(1 -1)" gradientUnits="userSpaceOnUse"><stop offset="0" stop-color="#fff"/><stop offset="1" stop-color="#e0b677"/></linearGradient><linearGradient id="l" x1="455.16" y1="149.88" x2="233.47" y2="371.57" gradientTransform="translate(486.86) rotate(-180) scale(1 -1)" gradientUnits="userSpaceOnUse"><stop offset="0" stop-color="#e0b677"/><stop offset=".16" stop-color="#bd9c6b"/><stop offset=".74" stop-color="#3e4143"/><stop offset="1" stop-color="#0c1d33"/></linearGradient><linearGradient id="n" x1="387.56" y1="403.44" x2="284.31" y2="300.19" gradientTransform="translate(486.86) rotate(-180) scale(1 -1)" gradientUnits="userSpaceOnUse"><stop offset="0" stop-color="#fff"/><stop offset=".5" stop-color="#e0b677"/></linearGradient><linearGradient id="p" x1="445.15" y1="228.41" x2="262.89" y2="410.68" gradientTransform="translate(486.86) rotate(-180) scale(1 -1)" gradientUnits="userSpaceOnUse"><stop offset="0" stop-color="#e0b677"/><stop offset=".29" stop-color="#a68c64"/><stop offset=".95" stop-color="#172436"/><stop offset="1" stop-color="#0c1d33"/></linearGradient><linearGradient id="r" x1="366.96" y1="471.79" x2="249.77" y2="354.59" gradientTransform="translate(486.86) rotate(-180) scale(1 -1)" gradientUnits="userSpaceOnUse"><stop offset="0" stop-color="#fff"/><stop offset="1" stop-color="#e0b677"/></linearGradient><linearGradient id="t" x1="405.17" y1="318.37" x2="278.96" y2="444.58" gradientTransform="translate(486.86) rotate(-180) scale(1 -1)" gradientUnits="userSpaceOnUse"><stop offset="0" stop-color="#e0b677"/><stop offset=".16" stop-color="#c4a26e"/><stop offset=".49" stop-color="#7f7057"/><stop offset=".98" stop-color="#102034"/><stop offset="1" stop-color="#0c1d33"/></linearGradient><linearGradient id="v" x1="335.73" y1="406.38" x2="259.24" y2="482.87" gradientTransform="translate(486.86) rotate(-180) scale(1 -1)" gradientUnits="userSpaceOnUse"><stop offset="0" stop-color="#fff"/><stop offset=".03" stop-color="#fefdfb"/><stop offset=".7" stop-color="#e8ca9c"/><stop offset="1" stop-color="#e0b677"/></linearGradient><linearGradient id="x" x1="76.69" y1="361.22" x2=".31" y2="437.6" gradientTransform="translate(486.86) rotate(-180) scale(1 -1)" gradientUnits="userSpaceOnUse"><stop offset="0" stop-color="#0c1d33"/><stop offset="0" stop-color="#1a2737"/><stop offset="0" stop-color="#434444"/><stop offset="0" stop-color="#696050"/><stop offset="0" stop-color="#89775b"/><stop offset="0" stop-color="#a48b63"/><stop offset="0" stop-color="#ba9b6b"/><stop offset="0" stop-color="#cba770"/><stop offset="0" stop-color="#d7af74"/><stop offset="0" stop-color="#deb476"/><stop offset="0" stop-color="#e0b677"/></linearGradient><linearGradient id="a`" x1="114.25" y1="479.18" x2="411.13" y2="659.42" gradientTransform="translate(486.86) rotate(-180) scale(1 -1)" gradientUnits="userSpaceOnUse"><stop offset="0" stop-color="#e0b677"/><stop offset=".15" stop-color="#ab8f66"/><stop offset=".5" stop-color="#29303c"/><stop offset=".55" stop-color="#162236"/></linearGradient><linearGradient id="ab" x1="293.15" y1="640.04" x2="82.09" y2="527.39" gradientTransform="translate(486.86) rotate(-180) scale(1 -1)" gradientUnits="userSpaceOnUse"><stop offset="0" stop-color="#0c1d33"/><stop offset="1" stop-color="#e0b677"/></linearGradient><linearGradient id="ad" x1="279.6" y1="809.27" x2="168.5" y2="899.8" gradientTransform="translate(486.86) rotate(-180) scale(1 -1)" gradientUnits="userSpaceOnUse"><stop offset="0" stop-color="#e0b677"/><stop offset=".19" stop-color="#a58657"/><stop offset=".45" stop-color="#5f4d32"/><stop offset=".66" stop-color="#2b2317"/><stop offset=".82" stop-color="#0b0906"/><stop offset=".9" stop-color="#000"/></linearGradient><linearGradient id="af" x1="282.34" y1="864.47" x2="51.9" y2="1052.24" gradientTransform="translate(486.86) rotate(-180) scale(1 -1)" gradientUnits="userSpaceOnUse"><stop offset="0" stop-color="#e0b677"/><stop offset=".02" stop-color="#c5a069"/><stop offset=".07" stop-color="#9c7f53"/><stop offset=".11" stop-color="#77603f"/><stop offset=".17" stop-color="#56462e"/><stop offset=".22" stop-color="#3b301f"/><stop offset=".29" stop-color="#251e13"/><stop offset=".36" stop-color="#14100a"/><stop offset=".46" stop-color="#080704"/><stop offset=".59" stop-color="#010100"/><stop offset=".96" stop-color="#000"/></linearGradient><linearGradient id="ah" x1="366.44" y1="873.53" x2="205.74" y2="712.83" gradientTransform="translate(486.86) rotate(-180) scale(1 -1)" gradientUnits="userSpaceOnUse"><stop offset="0" stop-color="#162236"/><stop offset=".14" stop-color="#484746"/><stop offset=".28" stop-color="#766855"/><stop offset=".43" stop-color="#9c8461"/><stop offset=".57" stop-color="#ba9a6a"/><stop offset=".72" stop-color="#cfa971"/><stop offset=".86" stop-color="#dbb275"/><stop offset=".99" stop-color="#e0b677"/></linearGradient><linearGradient id="aj" x1="68.75" y1="470.23" x2="44.49" y2="445.97" gradientTransform="translate(486.86) rotate(-180) scale(1 -1)" gradientUnits="userSpaceOnUse"><stop offset="0" stop-color="#fff"/><stop offset=".71" stop-color="#e0b677"/></linearGradient><linearGradient id="al" x1="44.49" y1="467.8" x2="103.56" y2="467.8" gradientTransform="translate(486.86) rotate(-180) scale(1 -1)" gradientUnits="userSpaceOnUse"><stop offset=".29" stop-color="#e0b677"/><stop offset="1" stop-color="#fff"/></linearGradient><linearGradient id="an" x1="386.67" y1="429.99" x2="328.56" y2="371.88" gradientTransform="matrix(1, 0, 0, 1, 0, 0)" gradientUnits="userSpaceOnUse"><stop offset="0" stop-color="#162236"/><stop offset=".03" stop-color="#262e3b"/><stop offset=".11" stop-color="#524e49"/><stop offset=".19" stop-color="#786a55"/><stop offset=".28" stop-color="#98815f"/><stop offset=".38" stop-color="#b29468"/><stop offset=".49" stop-color="#c6a36e"/><stop offset=".61" stop-color="#d5ae73"/><stop offset=".75" stop-color="#ddb476"/><stop offset="1" stop-color="#e0b677"/></linearGradient></defs><path id="c" class="bc" d="M181.63,121.78c21.21,24.87,45.31,57.27,67.53,97.7,19.09,34.68,32.4,67.13,41.68,94.97,.12,.33,.24,.65,.37,.98,.9,2.36,1.79,4.72,2.65,7.08,2.77-4.19,6.23-9.44,9.65-14.94,.04-.04,.04-.08,.08-.12-8.47-39.97-19.58-83.25-34.15-129.04-16.73-52.67-35.41-100.06-54.18-141.95-4.07,7.37-8.02,15.18-11.8,23.49-10.38,22.67-17.22,43.76-21.82,61.83Z"/><path id="e" class="bf" d="M215.26,36.42v.04c18.77,41.89,37.45,89.27,54.18,141.95,14.57,45.8,25.69,89.07,34.15,129.04,12.94-20.96,10.87-46.49,8.63-74.45-2.81-35.42-11.76-62.12-14.78-70.59-6.68-18.93-21.86-54.71-29.55-72.87-.49-1.14-1.59-3.7-2.93-7.16-2.32-5.86-5.37-14.29-8.39-24.59-.57-1.96-1.07-3.74-1.52-5.43-2.17-8.19-3.45-14.26-3.78-15.82-1.16-5.52-3.67-15.81-9.43-36.54-2.61,3.14-5.22,6.39-7.83,9.76-7.03,9.08-13.25,18.02-18.77,26.65Z"/><path id="g" class="ay" d="M113.37,191.75c22.14,15.39,45.96,32.36,71.2,50.92,36.11,26.54,50.11,38.51,64.6,56.3,12.01,14.7,20.11,28.33,25.28,38.1,0,.04,.04,.04,.04,.08,.12,.2,.24,.45,.37,.65,.04,.04,.04,.08,.04,.12,1.26,2.08,2.52,4.19,3.74,6.27,1.91-2.77,4.31-5.94,7.49-10.46-16.08-39.12-44.21-93.63-93.06-147.52-26.58-29.27-53.61-52.15-77.99-69.77-2.44,27.6-2.65,52.88-1.71,75.31Z"/><path id="i" class="be" d="M115.08,116.45c24.38,17.63,51.41,40.5,77.99,69.77,48.85,53.9,76.98,108.4,93.06,147.52,.41-.57,.81-1.14,1.26-1.75,0,0,2.65-3.79,6.47-9.48-.85-2.36-1.75-4.72-2.65-7.08-.12-.33-.24-.65-.37-.98-16.85-43.43-34.97-76.53-48.69-99.12-11.11-18.32-26.62-39.69-56.91-81.86-6.02-8.39-53.24-73.84-60.53-83.94-3.87,19.05-7.2,40.3-9.36,63.42-.12,1.18-.2,2.36-.28,3.5Z"/><path id="k" class="bj" d="M60.16,243.82c3.42,13.11,6.84,26.22,10.26,39.32,22.51,5.86,45.02,11.68,67.57,17.54,14.49,4.07,29.88,9.04,45.88,15.1,29.31,11.07,54.87,23.65,76.65,36.03,.04,.04,.12,.04,.16,.08,.08,.04,.2,.08,.28,.16,3.46,1.71,6.96,3.46,10.46,5.17,.2-.49,.41-.98,.57-1.38,.9-2.12,1.75-3.91,2.73-5.62-24.06-27.48-69.77-70.06-138.85-92.32-27.8-8.96-53.61-12.82-75.71-14.08Z"/><path id="m" class="at" d="M34.85,146.73c8.43,32.36,16.85,64.72,25.32,97.09,22.1,1.26,47.91,5.13,75.71,14.08,69.08,22.27,114.79,64.85,138.85,92.32,1.1-1.95,2.32-3.83,3.91-6.02-1.22-2.08-2.48-4.19-3.74-6.27,0-.04,0-.08-.04-.12-.12-.2-.24-.45-.37-.65,0-.04-.04-.04-.04-.08-.2-.28-.37-.61-.53-.9-8.39-13.88-16.77-24.59-23.45-32.28-6.47-7.41-12.13-12.9-15.31-15.88-8.79-8.22-17.1-14.53-24.71-19.99-26.91-19.3-90.17-63.67-175.61-121.31Z"/><path id="o" class="bh" d="M37.33,324.95c11.72,17.26,23.45,34.48,35.17,51.7,30.12-6.39,55.48-9.4,74.13-10.99,13.47-1.14,25.52-2.12,41.24-1.71,28.41,.65,51.58,5.37,67.53,9.57h.08s.12,.04,.16,.04c3.79,.85,7.61,1.75,11.4,2.61,.16-3.66,.73-7.04,1.47-10.01-38.79-12.05-85.85-24.02-137.26-31.83-33.46-5.09-64.89-7.98-93.91-9.36Z"/><path id="q" class="b`" d="M0,270.11c12.46,18.28,24.87,36.55,37.33,54.83,29.02,1.38,60.45,4.27,93.91,9.36,51.41,7.82,98.47,19.78,137.26,31.83,.9-3.62,2.04-6.64,2.93-8.91-3.5-1.71-7-3.46-10.46-5.17-.08-.08-.2-.12-.28-.16-.04-.04-.12-.04-.16-.08-10.87-5.86-24.02-12.38-39.28-19.01-2.73-1.18-20.64-9-40.38-15.63-33.66-11.32-56.83-14.45-83.16-19.74-23.69-4.8-57.23-12.9-97.7-27.31Z"/><path id="s" class="as" d="M84.02,435.91c12.09,6.55,23.16,10.99,32.12,14,18.03-10.01,38.75-20.31,62.12-29.88,26.87-10.95,52.02-18.89,74.41-24.63,4.23-1.1,10.1-2.12,17.06-1.71-.98-2.69-1.75-5.62-2.24-8.71-22.67-3.26-51.41-4.27-83.25,2.32-36.35,7.57-61.63,21.9-68.59,25.97-12.66,7.45-23.16,15.35-31.63,22.63Z"/><path id="u" class="aq" d="M18.97,381.08c9.16,11.68,23.33,27.19,43.64,41.56,7.33,5.21,14.53,9.57,21.41,13.27,8.47-7.29,18.97-15.18,31.63-22.63,6.96-4.07,32.24-18.4,68.59-25.97,31.83-6.59,60.57-5.58,83.25-2.32-.16-1.1-.28-2.24-.37-3.38-.16-1.87-.16-3.7-.08-5.45-3.79-.85-7.61-1.75-11.4-2.61-.04,0-.12-.04-.16-.04h-.08c-14.33-2.81-36.8-6.19-64.4-5.78-31.79,.49-49.01,5.7-81.62,9.73-20.76,2.56-51.62,5.13-90.41,3.62Z"/><path id="w" class="aw" d="M85.48,472.02c.37,.16,.73,.37,1.06,.49,39.93,3.05,99.08,5.45,135.27-2.93,6.92-1.59,12.74-3.54,17.67-5.66h.04c13.31-5.66,19.95-12.46,23.53-16.85,10.71-13.23,12.58-28.49,12.82-30.82,.37-3.7,.41-7.08,.16-10.22-2.32-3.38-4.64-7.53-6.31-12.33-6.96-.41-12.82,.61-17.06,1.71-23.16,7.53-48.12,16.81-74.33,28.29-35.25,15.47-66.23,32.16-92.85,48.32Z"/><path id="y" class="bg" d="M454.13,470.03c1.3-11.19,.2-19.91,.16-20.52-2.48-34.23-21.49-40.18-12.5-72.74,2.36-8.51,8.06-14.17,11.44-17.34,12.54-11.81,28.33-12.74,33.62-12.82-3.18-3.18-7.86-6.96-14.21-9.69-16.97-7.29-33.34-1.63-38.79,.61-2.16,2.44-4.31,5.13-6.47,8.06-5.13,7.08-10.42,13.84-12.94,22.84-6.02,21.57,6.02,33.05,9,57.52,1.63,13.23,.04,25.77-2.97,36.88,1.55,.77,3.13,1.55,4.84,2.24,10.95,4.52,21.17,5.33,28.82,4.97Z"/><path id="aa" class="ax" d="M105.06,742.93c-5.41,17.26-10.91,45.18-4.52,81.78,5.82-50.76,24.75-84.87,37.74-103.48,.04-.08,.12-.2,.16-.28,0-.04,.04-.08,.04-.12,.73-1.3,1.47-2.56,2.2-3.83,1.3-2.36,2.69-4.64,4.07-6.88,.65-1.1,1.34-2.2,1.99-3.3,1.34-2.2,2.69-4.31,4.11-6.35,.37-.57,.73-1.1,1.1-1.63,.98-1.51,1.99-2.97,3.01-4.44,1.87-2.65,3.75-5.21,5.62-7.65,.94-1.22,1.87-2.44,2.85-3.62,.9-1.18,1.83-2.36,2.81-3.5,3.74-4.56,7.53-8.75,11.24-12.62,2.65-2.73,5.25-5.25,7.86-7.65,1.18-1.14,2.36-2.2,3.5-3.18,.16-.16,.37-.33,.53-.49,1.1-.98,2.24-1.91,3.34-2.85,.28-.2,.57-.45,.85-.69,1.1-.94,2.24-1.79,3.3-2.65,3.79-2.97,7.53-5.66,11.15-8.06,6.43-4.27,12.62-8.34,18.52-12.21,2.24-1.42,4.4-2.85,6.55-4.23,3.54-2.32,7-4.52,10.38-6.64,.69-.41,1.38-.85,2.08-1.3,3.99-2.52,7.82-4.93,11.48-7.21,2.24-1.38,4.44-2.77,6.55-4.07,3.09-1.91,6.11-3.74,8.96-5.45h.04c3.18-1.95,6.23-3.79,9.12-5.5,.94-.57,1.91-1.14,2.81-1.67,3.91-2.32,7.49-4.4,10.75-6.27,2.16-1.26,4.19-2.4,6.02-3.42,10.14-5.74,15.51-8.55,15.51-8.55,1.42-.77,3.22-1.71,5.37-2.85h.04c1.42-.77,3.01-1.63,4.72-2.61,2.36-1.34,4.97-2.85,7.82-4.56,1.42-.85,2.89-1.79,4.4-2.77,1.87-1.22,3.87-2.52,5.9-3.91,6.07-4.15,12.7-9.08,19.54-14.86h.04c.73-.61,1.47-1.26,2.24-1.87,2.2-1.91,4.44-3.83,6.68-5.78,2.97-2.65,5.98-5.41,8.96-8.43,1.51-1.47,3.01-3.01,4.44-4.64,.73-.81,1.47-1.67,2.2-2.48,.73-.85,1.47-1.71,2.2-2.61,.77-.85,1.51-1.75,2.2-2.69,.73-.94,1.47-1.87,2.16-2.85,1.42-1.91,2.85-3.95,4.23-6.07,2.73-4.15,7.29-11.19,11.68-20.03h.04v-.04c-1.22-.33-2.44-.77-3.7-1.26-14.29-5.74-23.98-19.99-24.63-36.31,1.18,3.3,8.06,21.9,27.97,30.57,1.02,.45,2.04,.85,3.05,1.22,1.59-3.58,3.05-7.45,4.4-11.48-13.56-7.77-18.93-20.39-20.35-24.02,3.42,4.36,10.54,12.25,22.1,18.2,3.01-11.11,4.6-23.65,2.97-36.88-2.97-24.46-15.02-35.94-9-57.52,2.52-9,7.82-15.75,12.94-22.84,2.16-2.93,4.31-5.62,6.47-8.06-.37,.16-.69,.28-.98,.41-5.17-1.55-15.22-3.83-27.52-1.55-.33,.08-.65,.12-.98,.2-15.22,3.09-25.03,11.44-28.9,15.14-8.35-1.47-16.65-2.97-24.95-4.44,1.63,1.83,3.83,3.95,6.76,5.9,3.5,2.36,6.64,3.42,9.24,4.31,2.44,.85,4.64,1.42,6.43,1.79-2.89-.41-7.12-.57-11.89,.81-7.16,2.12-11.4,6.55-14,9.36-10.3,11.07-11.44,25.36-11.6,30.49,2.36-5.25,7.21-14,16.45-21.82,6.39-5.41,12.7-8.55,17.3-10.34-3.46,4.56-9,12.66-12.62,23.85-1.47,4.52-2.52,9.16-3.18,13.72-.41,2.93-.69,5.78-.9,8.63,0,0-.41,6.72,0,12.78-3.83,2.16-10.01,5.05-18.03,6.31-27.6,4.27-48.2-15.47-50.23-17.46-1.59-1.55-4.93-4.84-8.22-9.61,.24,3.13,.2,6.51-.16,10.22-.24,2.32-2.12,17.59-12.82,30.82-3.58,4.4-10.22,11.19-23.53,16.85h-.04c-4.93,2.12-10.75,4.07-17.67,5.66-36.19,8.39-95.34,5.98-135.27,2.93,32,15.59,60.29,20.92,78.44,22.88,36.72,4.07,60.45,2.28,84.87-9.16,17.5-8.51,27.56-18.2,37.25-19.91,10.95-1.95,17.79,10.75,18.07,11.56,7.04,18.93,2.56,31.91-20.64,70.02-7.08,11.6-22.76,25.32-40.91,42.25-32.61,30.41-43.23,33.14-67.53,55.08-23.33,21.09-56.38,50.92-71.03,97.7ZM367.95,446.46c.16-7.08,3.01-12.74,5.13-16.12-.94,7.41-1.34,19.5,4.03,32.32,6.72,15.92,18.24,23.37,18.24,23.73-.37,.33-27.8-17.42-27.4-39.93Zm-9-23.89c.37-3.95,.98-8.1,1.99-12.33,9.2-5.25,14.7-12.21,15.31-13.03-2.97,6.15-9.89,18.4-17.3,25.36Z"/><path id="ac" class="bb" d="M138.48,720.82c1.59-2.2,3.01-4.19,4.36-5.94,24.91-33.01,55.85-52.19,76.57-65.82,21.57-14.25,38.63-22.59,71.68-38.79,65.74-32.2,68.75-29.51,93.22-46.45,24.14-16.73,54.02-40.87,66.52-78.65,1.67-5.05,2.4-9.4,2.89-12.33-8.55,2.16-20.84,3.18-33.22-3.18-.61-.33-1.22-.65-1.79-1.02-1.34,4.03-2.81,7.9-4.4,11.48,12.58,4.48,23.65,2.65,28.05,1.71-1.87,1.06-15.27,8.43-30.73,4.07v.04h-.04c-4.4,8.83-8.96,15.88-11.68,20.03-1.38,2.12-2.81,4.15-4.23,6.07-.69,.98-1.42,1.91-2.16,2.85-.69,.94-1.42,1.83-2.2,2.69-.73,.9-1.47,1.75-2.2,2.61-.73,.81-1.47,1.67-2.2,2.48-1.42,1.63-2.93,3.18-4.44,4.64-2.97,3.01-5.98,5.78-8.96,8.43-2.24,1.95-4.48,3.87-6.68,5.78-.77,.61-1.51,1.26-2.24,1.87h-.04c-6.84,5.78-13.47,10.71-19.54,14.86-2.04,1.38-4.03,2.69-5.9,3.91-1.51,.98-2.97,1.91-4.4,2.77-2.85,1.71-5.45,3.22-7.82,4.56-1.71,.98-3.3,1.83-4.72,2.61h-.04c-2.16,1.14-3.95,2.08-5.37,2.85,0,0-5.37,2.81-15.51,8.55-1.83,1.02-3.87,2.16-6.02,3.42-3.26,1.87-6.84,3.95-10.75,6.27-.9,.53-1.87,1.1-2.81,1.67-2.89,1.71-5.94,3.54-9.12,5.5h-.04c-2.85,1.71-5.86,3.54-8.96,5.45-2.12,1.3-4.32,2.69-6.55,4.07-3.66,2.28-7.49,4.68-11.48,7.21-.69,.45-1.38,.9-2.08,1.3-3.38,2.12-6.84,4.31-10.38,6.64-2.16,1.38-4.31,2.81-6.55,4.23-5.9,3.87-12.09,7.94-18.52,12.21-3.62,2.4-7.37,5.09-11.15,8.06-1.06,.85-2.2,1.71-3.3,2.65-.28,.24-.57,.49-.85,.69-1.1,.94-2.24,1.87-3.34,2.85-.16,.16-.37,.33-.53,.49-1.14,.98-2.32,2.04-3.5,3.18-2.61,2.4-5.21,4.93-7.86,7.65-3.7,3.87-7.49,8.06-11.24,12.62-.98,1.14-1.91,2.32-2.81,3.5-.98,1.18-1.91,2.4-2.85,3.62-1.87,2.44-3.74,5.01-5.62,7.65-1.02,1.47-2.04,2.93-3.01,4.44-.37,.53-.73,1.06-1.1,1.63-1.42,2.04-2.77,4.15-4.11,6.35-.65,1.1-1.34,2.2-1.99,3.3-1.38,2.24-2.77,4.52-4.07,6.88-.73,1.26-1.47,2.52-2.2,3.83Z"/><path id="ae" class="ba" d="M170.7,797.92c2.25,6.4,9.6,27.14,31.1,37.71,4.17,2.07,22.48,11.09,42.37,3.11,10.66-4.26,17.15-11.55,20.23-15.54-4.66,2.8-18.95,10.51-37.32,7.77-17.67-2.62-28.42-13.28-33.84-18.67-13.01-12.89-17.42-27.39-19.43-34.21-4.57-15.51-3.02-26.44-3.9-26.44-1.28-.03-7.68,22.36,.79,46.27Z"/><path id="ag" class="au" d="M155.66,849.29c3.01,8.55,12.82,36.27,41.56,50.4,5.58,2.77,30.04,14.82,56.62,4.15,14.25-5.7,22.92-15.43,27.03-20.76-6.23,3.75-25.32,14.04-49.87,10.38-23.61-3.5-37.98-17.75-45.23-24.95-17.38-17.22-23.28-36.6-25.97-45.71-6.11-20.72-4.03-35.33-5.21-35.33-1.71-.04-10.26,29.88,1.06,61.83Z"/><path id="ai" class="av" d="M131.73,881.86c21.33,32.12,53.57,42.99,64.11,46.08-10.83-6.92-32.69-23-46.45-51.98-15.83-33.38-11.48-64.11-9-81.74,5.21-36.96,21.21-62.4,31.87-79.01,18.03-28.05,38.55-46.81,53-58.21-17.22,7.73-46.57,23.81-71.68,55.12-11.19,13.92-32.4,40.99-37.78,82.11-2.2,16.77-6.96,53.12,15.92,87.64Z"/><path id="ak" class="bd" d="M398.36,444.62c1.42,3.62,6.8,16.24,20.35,24.02,.57,.37,1.18,.69,1.79,1.02,12.37,6.35,24.67,5.33,33.22,3.18,6.23-1.55,10.46-3.74,11.32-4.19-2.32,.49-6.11,1.18-10.91,1.38-7.65,.37-17.87-.45-28.82-4.97-1.71-.69-3.3-1.47-4.84-2.24-11.56-5.94-18.68-13.84-22.1-18.2Z"/><path id="am" class="bi" d="M383.3,448.33c.65,16.32,10.34,30.57,24.63,36.31,1.26,.49,2.48,.94,3.7,1.26,15.47,4.36,28.86-3.01,30.73-4.07-4.4,.94-15.47,2.77-28.05-1.71-1.02-.37-2.04-.77-3.05-1.22-19.91-8.67-26.79-27.27-27.97-30.57Z"/><path id="ao" class="bk" d="M374.2,360.03c-.49-.08-1.02-.2-1.63-.28-2.89-.41-7.12-.57-11.89,.81-7.16,2.12-11.4,6.55-14,9.36-10.3,11.07-11.44,25.36-11.6,30.49,2.36-5.25,7.21-14,16.45-21.82,6.39-5.41,12.7-8.55,17.3-10.34-3.46,4.56-9,12.66-12.62,23.85-1.47,4.52-2.52,9.16-3.18,13.72-.41,2.93-.69,5.78-.9,8.63,0,0-.41,6.72,0,12.78,.53,7.73,4.72,22.39,13.84,39.53-3.54-8.18-11.64-29.88-5.41-56.09,3.18-13.27,8.96-23.24,13.47-29.68"/><g id="ap"><path class="ar" d="M420.2,342.97c-9.67-2.64-16.88,1.22-23.68,7.88-1.29,1.23-2.23,2.75-3.62,3.9-1.42,1.15-3.24,1.69-5.03,1.7-1.79,0-3.54-.45-5.19-1.09,1.67,.56,3.43,.92,5.18,.85,1.74-.06,3.48-.63,4.79-1.76,1.3-1.15,2.28-2.7,3.53-3.92,6.75-6.79,14.41-10.74,24-7.57h0Z"/></g></svg>