<svg width="20" height="20" viewBox="0 0 20 20" fill="none" xmlns="http://www.w3.org/2000/svg">
<g clip-path="url(#clip0_335_879)">
<path d="M19.2738 0.960872L15.2113 0.0233716C14.7699 -0.0781909 14.3168 0.152278 14.1371 0.56634L12.2621 4.94134C12.0981 5.32415 12.2074 5.77337 12.5317 6.03509L14.8988 7.97259C13.4926 10.9687 11.0356 13.4609 7.97697 14.8945L6.03947 12.5273C5.77384 12.2031 5.32853 12.0937 4.94572 12.2577L0.570719 14.1327C0.152751 14.3163 -0.0777181 14.7695 0.0238444 15.2109L0.961344 19.2734C1.059 19.6952 1.434 19.9999 1.87541 19.9999C11.8793 19.9999 20.0004 11.8945 20.0004 1.87493C20.0004 1.43743 19.6996 1.05853 19.2738 0.960872Z" fill="#32325D"/>
</g>
<defs>
<clipPath id="clip0_335_879">
<rect width="20" height="20" fill="white"/>
</clipPath>
</defs>
</svg>
