<svg width="50" height="50" viewBox="0 0 50 50" fill="none" xmlns="http://www.w3.org/2000/svg">
<circle cx="25" cy="25" r="24" fill="white" stroke="#E9ECEF" stroke-linecap="square"/>
<path d="M28.461 27.0229C27.424 27.6319 26.258 27.9999 25 27.9999C23.742 27.9999 22.576 27.6319 21.539 27.0229C17.894 27.2619 15 30.2959 15 33.9999V35.7299L15.695 35.9529C15.829 35.9949 19.038 36.9999 25 36.9999C30.962 36.9999 34.171 35.9949 34.305 35.9529L35 35.7299V33.9999C35 30.2959 32.106 27.2619 28.461 27.0229Z" fill="#172B4D"/>
<path d="M25 26C28.379 26 31 22.237 31 19C31 15.691 28.309 13 25 13C21.691 13 19 15.691 19 19C19 22.237 21.621 26 25 26Z" fill="#172B4D"/>
</svg>
